{"title":"De Kleine Blonde Dood (1993)","uid":5874746,"size":1369265288,"categoryP":"video","categoryS":"movies","magnet":"?xt=urn:btih:79273a5ec1e6d876a93a28d6a9b9b9dd64a57a3c&amp;dn=De+Kleine+Blonde+Dood+%281993%29&amp;tr=udp%3A%2F%2Ftracker.openbittorrent.com%3A80&amp;tr=udp%3A%2F%2Fopen.demonii.com%3A1337&amp;tr=udp%3A%2F%2Ftracker.coppersurfer.tk%3A6969&amp;tr=udp%3A%2F%2Fexodus.desync.com%3A6969","seeders":5,"leechers":1,"uploader":"Filmofiel","files":1,"time":1286572889,"description":"Nederland\nDrama\n90 minuten\n\ngeregisseerd door Jean van de Velde\nmet Antonie Kamerling, Olivier Tuinier en Loes Wouterson\n\nDe dichter Valentijn komt weer in contact met zijn vroegere juf Mieke. Ze krijgen een kortstondige relatie en later blijkt Mieke zwanger te zijn. Valentijn heeft geen zin om zijn verantwoordelijkheid te nemen en laat haar in de steek. Maar als hij later zijn zoon leert kennen ontwikkelt zich toch een band tussen de twee.\n\nFormat                           : AVI\nFormat/Info                      : Audio Video Interleave\nFile size                        : 1.28 GiB\nDuration                         : 1h 30mn\nOverall bit rate                 : 2 009 Kbps\nMovie name                       : DE_KLEINE_BLONDE_DOOD.Title1.DVDRip\nWriting application              : Lavf52.33.0\nOriginal source form/Name        : DE_KLEINE_BLONDE_DOOD\n\nVideo\nID                               : 0\nFormat                           : xvid\nCodec ID                         : xvid\nDuration                         : 1h 30mn\nBit rate                         : 1 553 Kbps\nWidth                            : 720 pixels\nHeight                           : 324 pixels\nDisplay aspect ratio             : 2.222\nFrame rate                       : 25.000 fps\nBits/(Pixel*Frame)               : 0.266\nStream size                      : 1 008 MiB (77%)\n\nAudio\nID                               : 1\nFormat                           : AC-3\nFormat/Info                      : Audio Coding 3\nMode extension                   : CM (complete main)\nCodec ID                         : 2000\nDuration                         : 1h 30mn\nBit rate mode                    : Constant\nBit rate                         : 448 Kbps\nChannel(s)                       : 6 channels\nChannel positions                : Front: L C R, Side: L R, LFE\nSampling rate                    : 48.0 KHz\nBit depth                        : 16 bits\nStream size                      : 291 MiB (22%)\nAlignment                        : Aligned on interleaves\nInterleave, duration             : 32 ms (0.80 video frame)\nInterleave, preload duration     : 32 ms\n\nMoviemeter: http://www.moviemeter.nl/film/1265\nIMdB: http://www.imdb.com/title/tt0107331/\n","torrent":{"xt":"urn:btih:79273a5ec1e6d876a93a28d6a9b9b9dd64a57a3c","amp;dn":"De+Kleine+Blonde+Dood+%281993%29","amp;tr":["udp%3A%2F%2Ftracker.openbittorrent.com%3A80","udp%3A%2F%2Fopen.demonii.com%3A1337","udp%3A%2F%2Ftracker.coppersurfer.tk%3A6969","udp%3A%2F%2Fexodus.desync.com%3A6969"],"infoHash":"79273a5ec1e6d876a93a28d6a9b9b9dd64a57a3c","infoHashBuffer":{"type":"Buffer","data":[121,39,58,94,193,230,216,118,169,58,40,214,169,185,185,221,100,165,122,60]},"announce":[],"urlList":[]}}